<svg version="1.1" id="layer" xmlns="http://www.w3.org/2000/svg" x="0" y="0" viewBox="0 0 652 652" xml:space="preserve"><style>.st0{fill:#435363}</style><path class="st0" d="M392.4 363.2s35.5-72.1-40.3-72.1c-66.5 0-88.2 58.4-92.1 72.6-7.6 28 5.9 51 40.9 51h52.8l7-24.1-49.2-.1s-35.6 1.3-21.5-27.3h102.4zm-44-49.9c31.2 0 19.6 25.4 19.6 25.4h-67.1s14.4-25.4 47.5-25.4M417.7 414.9h-30.4l58.4-184.8H476zM468 414.9h-30.4l37.8-119h30.4zM514 268.3h-30.3l9.9-32.8H524z"/><g><path class="st0" d="M483 415.3h66c5.5 0 43.4-.4 52.8-39.1 8-33.1-27.4-33.9-32.8-33.9h-19.2c-3.4 0-19.6.9-11-12.2 5.2-8 13.6-10.7 19.8-10.7 3.9 0 54.1-.2 54.1-.2l8-23.1-57.1-.2s-35.1-1.8-50.8 27.2c-16.2 30.1 9.7 42.2 28.2 42.2h24.4c3 0 12.4 1.1 8.9 11.2-3 8.7-13.4 13.9-20 14.1-4 .2-62.9 0-62.9 0l-8.4 24.7z"/><path d="M112.2 358.1h-.2c-3.3 0-6.5-1.4-8.5-3.7-2-2.3-2.9-5.2-2.9-7.8 0-3.2 1.2-6.5 3.7-9.1 2.4-2.5 23.1-23.2 34-34.1-4.2-4-7.3-6.9-8-7.7-4.2-4.2-11.2-3.9-10.5-3.8H27.1c-6.9 0-7.8 7.9-4.1 11.6 2.9 2.9 31.3 31.4 38.9 39 6.7 6.7 6.1 11 6.1 11s.6 4.3-6.1 11.1c-7.6 7.6-36 36.1-38.9 39-3.7 3.7-2.7 11.6 4.1 11.6h92.8s6.4.1 10.4-3.8c3.1-3.1 49.1-46.8 49.1-46.8s2.9-2.4 4.4-6.5h-71.6z" fill="#00afaa"/><path d="M153 291.2s.6 4.3-6.1 11c-7.6 7.6-36 36.1-38.9 39-3.7 3.7-2.7 11.6 4.2 11.6H205s6.4.1 10.4-3.8c3.1-3.1 49.1-46.8 49.1-46.8s5.2-4.3 5.2-10.8v-.4c0-6.6-5.2-10.8-5.2-10.8s-46-43.7-49.1-46.8c-3.9-4-10.4-3.9-10.4-3.9h-92.8c-6.9 0-7.8 7.9-4.2 11.6 2.9 2.9 31.3 31.4 38.9 39 6.7 6.7 6.1 11.1 6.1 11.1" fill="#d9272e"/></g></svg>