<?xml version="1.0"?>
<svg xmlns="http://www.w3.org/2000/svg" width="30" height="30" viewBox="0 0 16 16" fill="black">
    <path d="M 2.5 2 C 1.6774686 2 1 2.6774686 1 3.5 L 1 9.5 C 1 10.322531 1.6774686 11 2.5 11 L 6 11 L 6 12.5 C 6 13.322531 6.6774686 14 7.5 14 L 13.5 14 C 14.322531 14 15 13.322531 15 12.5 L 15 6.5 C 15 5.6774686 14.322531 5 13.5 5 L 10 5 L 10 3.5 C 10 2.6774686 9.3225314 2 8.5 2 L 2.5 2 z M 2.5 3 L 8.5 3 C 8.7814686 3 9 3.2185314 9 3.5 L 9 6 L 13.5 6 C 13.781469 6 14 6.2185314 14 6.5 L 14 12.5 C 14 12.781469 13.781469 13 13.5 13 L 7.5 13 C 7.2185314 13 7 12.781469 7 12.5 L 7 10 L 2.5 10 C 2.2185314 10 2 9.7814686 2 9.5 L 2 3.5 C 2 3.2185314 2.2185314 3 2.5 3 z M 5 4 L 5 5 L 3 5 L 3 6 L 5.9609375 6 C 5.842697 6.2123612 5.7007427 6.4445222 5.5058594 6.6894531 C 5.4958093 6.7020841 5.4828799 6.7139661 5.4726562 6.7265625 C 5.2558863 6.5394953 5.1054688 6.3984375 5.1054688 6.3984375 L 4.3945312 7.1015625 C 4.3945312 7.1015625 4.5248794 7.230598 4.7363281 7.4160156 C 4.2764155 7.7526775 3.7184062 8 3 8 L 3 9 C 4.0688953 9 4.9038371 8.5762545 5.5429688 8.0488281 C 6.2014712 8.5092388 7.058517 9 8 9 L 8 8 C 7.4855565 8 6.8253675 7.6912394 6.2714844 7.3300781 C 6.2766711 7.3236214 6.2839291 7.3169986 6.2890625 7.3105469 C 6.7291295 6.7574673 6.9482119 6.304012 7.078125 6 L 8 6 L 8 5 L 6 5 L 6 4 L 5 4 z M 10.076172 7 L 8 10.875 L 8 12 L 9 12 L 9 11.125 L 9.0664062 11 L 11.933594 11 L 12 11.125 L 12 12 L 13 12 L 13 10.875 L 10.923828 7 L 10.076172 7 z M 10.5 8.3242188 L 11.398438 10 L 9.6015625 10 L 10.5 8.3242188 z"/>
</svg>
